<svg width="1293" height="203" viewBox="0 0 1293 203" fill="none" xmlns="http://www.w3.org/2000/svg">
<g opacity="0.5" clip-path="url(#clip0)">
<path d="M-1 100.4L42.1667 87.85C85.3333 75.3 171.667 50.2 258 66.9072C344.333 83.9281 430.667 141.972 517 138.05C603.333 134.128 689.667 66.6719 776 66.9072C862.333 66.6719 948.667 134.128 1035 163.15C1121.33 192.172 1207.67 184.328 1250.83 179.857L1294 175.7V251H1250.83C1207.67 251 1121.33 251 1035 251C948.667 251 862.333 251 776 251C689.667 251 603.333 251 517 251C430.667 251 344.333 251 258 251C171.667 251 85.3333 251 42.1667 251H-1V100.4Z" fill="white"/>
</g>
<path d="M-1 33L42.1667 47.375C85.3333 61.75 171.667 90.5 258 119.25C344.333 148 430.667 176.75 517 191.125C603.333 205.5 689.667 205.5 776 176.75C862.333 148 948.667 90.5 1035 61.75C1121.33 33 1207.67 33 1250.83 33H1294V263H1250.83C1207.67 263 1121.33 263 1035 263C948.667 263 862.333 263 776 263C689.667 263 603.333 263 517 263C430.667 263 344.333 263 258 263C171.667 263 85.3333 263 42.1667 263H-1V33Z" fill="white"/>
<defs>
<clipPath id="clip0">
<rect width="1295" height="251" fill="white" transform="translate(-1)"/>
</clipPath>
</defs>
</svg>
